<?xml version="1.0" encoding="UTF-8" standalone="no"?>
<svg
   width="816"
   zoomAndPan="magnify"
   viewBox="0 0 612 225"
   height="300"
   preserveAspectRatio="xMidYMid"
   version="1.2"
   id="svg5"
   sodipodi:docname="OCT-only.svg"
   inkscape:version="1.4.2 (ebf0e940, 2025-05-08)"
   xmlns:inkscape="http://www.inkscape.org/namespaces/inkscape"
   xmlns:sodipodi="http://sodipodi.sourceforge.net/DTD/sodipodi-0.dtd"
   xmlns="http://www.w3.org/2000/svg"
   xmlns:svg="http://www.w3.org/2000/svg">
  <sodipodi:namedview
     id="namedview5"
     pagecolor="#ffffff"
     bordercolor="#000000"
     borderopacity="0.25"
     inkscape:showpageshadow="2"
     inkscape:pageopacity="0.0"
     inkscape:pagecheckerboard="0"
     inkscape:deskcolor="#d1d1d1"
     inkscape:zoom="0.75206216"
     inkscape:cx="390.92513"
     inkscape:cy="370.97997"
     inkscape:window-width="1280"
     inkscape:window-height="905"
     inkscape:window-x="222"
     inkscape:window-y="507"
     inkscape:window-maximized="0"
     inkscape:current-layer="svg5" />
  <defs
     id="defs2">
    <clipPath
       id="95d86220a3">
      <path
         d="m 416.88281,57.910156 h 195 V 274.66016 h -195 z m 0,0"
         id="path1" />
    </clipPath>
    <clipPath
       id="2fb2bc6ef1">
      <path
         d="m 225.29297,60.375 h 191.25 v 216.75 h -191.25 z m 0,0"
         id="path2" />
    </clipPath>
  </defs>
  <g
     id="e473afcda2"
     transform="translate(-1.2590248,-55.135325)">
    <path
       style="fill:#150860;fill-opacity:1;fill-rule:nonzero;stroke:none"
       d="M 41.429688,226.03125 C 15.207031,193.8125 13.636719,147.73828 37.601562,113.99609 62.730469,78.621094 109.23047,65.492188 148.61328,81.578125 l -11.42187,22.093755 c -26.8125,-10.074224 -57.070316,-2.39454 -75.906254,20.05468 -13.53125,16.12891 -18.558594,38.48438 -13.449218,59.79688 l 16.023437,-3.83594 c -3.902344,-16.26563 -0.148437,-33.22656 10.042969,-45.37109 15.640625,-18.64063 41.656246,-23.84375 63.261716,-12.66016 l 7.32031,3.78906 26.48829,-51.253904 -7.3086,-3.785156 C 115.60547,45.523438 55.636719,60.164062 24.167969,104.45703 5.546875,130.6875 0.00390625,163.21875 7.253906,193.22266 c 3.742188,15.48437 10.886719,30.28906 21.394532,43.20703 3.113281,3.82422 6.5625,7.35547 10.15625,10.73047 l 7.875,-15.2461 c -1.824219,-1.89062 -3.59375,-3.83984 -5.25,-5.88281 z M 202.75,230.61328 c 27.94922,-39.29687 26.45703,-93.1875 -3.63672,-131.046874 -3.38672,-4.25 -7.14844,-8.171875 -11.08594,-11.855468 l -7.875,15.238282 c 2.1211,2.19141 4.16016,4.47656 6.06641,6.87109 25.55078,32.15235 26.83594,77.89063 3.10547,111.24219 -25.13281,35.33203 -71.61719,48.43359 -111.878908,34.12891 l 11.417969,-22.09375 c 27.675779,8.29296 57.894529,0.65234 76.738279,-21.72266 13.94922,-16.55469 18.79297,-39.44922 13.16406,-61.3125 L 162.77344,154 c 4.40625,16.62891 0.73047,34.29297 -9.77344,46.76562 -15.64844,18.57813 -41.62891,23.75391 -63.203125,12.58594 l -7.316406,-3.78906 -26.484375,51.26172 7.304687,3.77734 c 48.031249,24.86328 107.972659,10.25 139.449219,-33.98828"
       id="path3" />
    <g
       clip-rule="nonzero"
       clip-path="url(#95d86220a3)"
       id="g4">
      <path
         style="fill:#160860;fill-opacity:1;fill-rule:nonzero;stroke:none"
         d="M 544.69922,274.70312 H 483.87109 V 118.84375 H 416.96484 V 57.929688 H 611.54687 L 611.60156,75.25 H 434.28125 v 26.27344 h 66.90625 v 155.85937 h 26.19141 V 101.78906 h 17.32031 v 172.91406"
         id="path4" />
    </g>
    <g
       clip-rule="nonzero"
       clip-path="url(#2fb2bc6ef1)"
       id="g5">
      <path
         style="fill:#746ed1;fill-opacity:1;fill-rule:nonzero;stroke:none"
         d="m 361.27344,196.38672 c -7.41016,7.41015 -17.19922,11.46875 -27.60938,11.46875 -21.52344,0 -38.98437,-17.46485 -38.98437,-38.98828 0,-21.51953 17.46093,-38.98438 38.98437,-38.98438 10.41016,0 20.19922,4.05469 27.60938,11.46485 l 6.26172,6.26171 48.95312,-49.214839 -6.26172,-6.265625 C 389.76172,71.667969 362.59375,60.375 333.66406,60.375 c -59.71484,0.08984 -108.3164,48.69141 -108.3164,108.40625 0,59.71484 48.60156,108.3125 108.3164,108.3125 28.92969,0 56.09766,-11.28906 76.5625,-31.75391 l 6.26172,-6.26172 -48.95312,-48.95312 z m -27.60938,63.0664 c -50.01172,0 -90.67187,-40.66015 -90.67187,-90.67187 0,-50.01172 40.66015,-90.675781 90.67187,-90.675781 21.25781,0 41.36719,7.234375 57.59766,20.640625 L 367.00391,123 c -9.61329,-7.05469 -21.16797,-10.84766 -33.33985,-10.84766 -31.22265,0 -56.625,25.40235 -56.625,56.62891 0,31.22266 25.40235,56.625 56.625,56.625 12.17188,0 23.72656,-3.79297 33.33985,-10.84766 l 24.25781,24.25391 c -16.23047,13.41016 -36.33985,20.64062 -57.59766,20.64062 z m 0,0"
         id="path5" />
    </g>
  </g>
</svg>
